<mxfile host="Electron" modified="2023-12-27T02:48:55.576Z" agent="Mozilla/5.0 (Windows NT 10.0; Win64; x64) AppleWebKit/537.36 (KHTML, like Gecko) draw.io/22.1.11 Chrome/114.0.5735.289 Electron/25.9.8 Safari/537.36" etag="PqvQMo-WdQvUcrkbE6SF" version="22.1.11" type="device">
  <diagram name="第 1 页" id="D3BQe009vHcldcBDITee">
    <mxGraphModel dx="592" dy="360" grid="1" gridSize="10" guides="1" tooltips="1" connect="1" arrows="1" fold="1" page="1" pageScale="1" pageWidth="827" pageHeight="1169" math="0" shadow="0">
      <root>
        <mxCell id="0" />
        <mxCell id="1" parent="0" />
        <mxCell id="X75WPi0ZbdI8c19y51R8-2" value="用户" style="rounded=0;whiteSpace=wrap;html=1;" parent="1" vertex="1">
          <mxGeometry x="140" y="40" width="120" height="230" as="geometry" />
        </mxCell>
        <mxCell id="X75WPi0ZbdI8c19y51R8-3" value="景点门票销售管理系统" style="ellipse;whiteSpace=wrap;html=1;" parent="1" vertex="1">
          <mxGeometry x="370" y="40" width="120" height="230" as="geometry" />
        </mxCell>
        <mxCell id="X75WPi0ZbdI8c19y51R8-6" value="营业员" style="rounded=0;whiteSpace=wrap;html=1;" parent="1" vertex="1">
          <mxGeometry x="580" y="30" width="120" height="240" as="geometry" />
        </mxCell>
        <mxCell id="X75WPi0ZbdI8c19y51R8-8" value="" style="endArrow=classic;html=1;rounded=0;entryX=0.063;entryY=0.301;entryDx=0;entryDy=0;entryPerimeter=0;" parent="1" edge="1" target="X75WPi0ZbdI8c19y51R8-3">
          <mxGeometry width="50" height="50" relative="1" as="geometry">
            <mxPoint x="260" y="109" as="sourcePoint" />
            <mxPoint x="360" y="109" as="targetPoint" />
          </mxGeometry>
        </mxCell>
        <mxCell id="X75WPi0ZbdI8c19y51R8-9" value="" style="endArrow=classic;html=1;rounded=0;entryX=-0.013;entryY=0.611;entryDx=0;entryDy=0;entryPerimeter=0;" parent="1" edge="1" target="X75WPi0ZbdI8c19y51R8-3">
          <mxGeometry width="50" height="50" relative="1" as="geometry">
            <mxPoint x="260" y="180" as="sourcePoint" />
            <mxPoint x="360" y="180.5" as="targetPoint" />
          </mxGeometry>
        </mxCell>
        <mxCell id="X75WPi0ZbdI8c19y51R8-11" value="用户购票信息" style="edgeLabel;html=1;align=center;verticalAlign=middle;resizable=0;points=[];" parent="X75WPi0ZbdI8c19y51R8-9" vertex="1" connectable="0">
          <mxGeometry x="0.1326" y="8" relative="1" as="geometry">
            <mxPoint x="-7" y="-2" as="offset" />
          </mxGeometry>
        </mxCell>
        <mxCell id="X75WPi0ZbdI8c19y51R8-10" value="用户个人信息" style="text;html=1;align=center;verticalAlign=middle;resizable=0;points=[];autosize=1;strokeColor=none;fillColor=none;" parent="1" vertex="1">
          <mxGeometry x="260" y="70" width="100" height="30" as="geometry" />
        </mxCell>
        <mxCell id="X75WPi0ZbdI8c19y51R8-14" value="" style="endArrow=classic;html=1;rounded=0;exitX=-0.001;exitY=0.434;exitDx=0;exitDy=0;exitPerimeter=0;" parent="1" edge="1" source="X75WPi0ZbdI8c19y51R8-3">
          <mxGeometry width="50" height="50" relative="1" as="geometry">
            <mxPoint x="360" y="140" as="sourcePoint" />
            <mxPoint x="260" y="140" as="targetPoint" />
          </mxGeometry>
        </mxCell>
        <mxCell id="X75WPi0ZbdI8c19y51R8-16" value="景点门票信息" style="edgeLabel;html=1;align=center;verticalAlign=middle;resizable=0;points=[];" parent="X75WPi0ZbdI8c19y51R8-14" vertex="1" connectable="0">
          <mxGeometry x="0.1267" y="-6" relative="1" as="geometry">
            <mxPoint x="6" y="-4" as="offset" />
          </mxGeometry>
        </mxCell>
        <mxCell id="X75WPi0ZbdI8c19y51R8-18" value="" style="endArrow=classic;html=1;rounded=0;exitX=0.167;exitY=0.826;exitDx=0;exitDy=0;exitPerimeter=0;" parent="1" edge="1" source="X75WPi0ZbdI8c19y51R8-3">
          <mxGeometry width="50" height="50" relative="1" as="geometry">
            <mxPoint x="350" y="230" as="sourcePoint" />
            <mxPoint x="260" y="230" as="targetPoint" />
          </mxGeometry>
        </mxCell>
        <mxCell id="X75WPi0ZbdI8c19y51R8-19" value="购票反馈信息" style="text;html=1;align=center;verticalAlign=middle;resizable=0;points=[];autosize=1;strokeColor=none;fillColor=none;" parent="1" vertex="1">
          <mxGeometry x="260" y="190" width="100" height="30" as="geometry" />
        </mxCell>
        <mxCell id="X75WPi0ZbdI8c19y51R8-21" value="" style="endArrow=classic;html=1;rounded=0;entryX=-0.017;entryY=0.321;entryDx=0;entryDy=0;entryPerimeter=0;exitX=0.951;exitY=0.293;exitDx=0;exitDy=0;exitPerimeter=0;" parent="1" target="X75WPi0ZbdI8c19y51R8-6" edge="1" source="X75WPi0ZbdI8c19y51R8-3">
          <mxGeometry width="50" height="50" relative="1" as="geometry">
            <mxPoint x="490" y="109" as="sourcePoint" />
            <mxPoint x="570" y="109" as="targetPoint" />
          </mxGeometry>
        </mxCell>
        <mxCell id="X75WPi0ZbdI8c19y51R8-23" value="用户个人信息" style="edgeLabel;html=1;align=center;verticalAlign=middle;resizable=0;points=[];" parent="X75WPi0ZbdI8c19y51R8-21" vertex="1" connectable="0">
          <mxGeometry x="-0.1333" relative="1" as="geometry">
            <mxPoint y="-9" as="offset" />
          </mxGeometry>
        </mxCell>
        <mxCell id="X75WPi0ZbdI8c19y51R8-24" value="" style="endArrow=classic;html=1;rounded=0;exitX=-0.028;exitY=0.465;exitDx=0;exitDy=0;exitPerimeter=0;" parent="1" source="X75WPi0ZbdI8c19y51R8-6" edge="1">
          <mxGeometry width="50" height="50" relative="1" as="geometry">
            <mxPoint x="560" y="140" as="sourcePoint" />
            <mxPoint x="490" y="142" as="targetPoint" />
          </mxGeometry>
        </mxCell>
        <mxCell id="X75WPi0ZbdI8c19y51R8-25" value="景点门票信息" style="edgeLabel;html=1;align=center;verticalAlign=middle;resizable=0;points=[];" parent="X75WPi0ZbdI8c19y51R8-24" vertex="1" connectable="0">
          <mxGeometry x="-0.3048" y="-1" relative="1" as="geometry">
            <mxPoint x="-6" y="-9" as="offset" />
          </mxGeometry>
        </mxCell>
        <mxCell id="X75WPi0ZbdI8c19y51R8-26" value="" style="endArrow=classic;html=1;rounded=0;entryX=-0.003;entryY=0.621;entryDx=0;entryDy=0;entryPerimeter=0;" parent="1" target="X75WPi0ZbdI8c19y51R8-6" edge="1">
          <mxGeometry width="50" height="50" relative="1" as="geometry">
            <mxPoint x="490" y="180" as="sourcePoint" />
            <mxPoint x="570" y="180" as="targetPoint" />
          </mxGeometry>
        </mxCell>
        <mxCell id="X75WPi0ZbdI8c19y51R8-27" value="购票信息" style="edgeLabel;html=1;align=center;verticalAlign=middle;resizable=0;points=[];" parent="X75WPi0ZbdI8c19y51R8-26" vertex="1" connectable="0">
          <mxGeometry x="-0.1833" y="3" relative="1" as="geometry">
            <mxPoint y="-7" as="offset" />
          </mxGeometry>
        </mxCell>
        <mxCell id="Usz6SnegGL2PP18I5uHc-3" value="" style="endArrow=classic;html=1;rounded=0;exitX=-0.022;exitY=0.838;exitDx=0;exitDy=0;exitPerimeter=0;entryX=0.875;entryY=0.835;entryDx=0;entryDy=0;entryPerimeter=0;" edge="1" parent="1" source="X75WPi0ZbdI8c19y51R8-6" target="X75WPi0ZbdI8c19y51R8-3">
          <mxGeometry width="50" height="50" relative="1" as="geometry">
            <mxPoint x="430" y="150" as="sourcePoint" />
            <mxPoint x="480" y="100" as="targetPoint" />
          </mxGeometry>
        </mxCell>
        <mxCell id="Usz6SnegGL2PP18I5uHc-4" value="门票销售信息" style="text;html=1;strokeColor=none;fillColor=none;align=center;verticalAlign=middle;whiteSpace=wrap;rounded=0;" vertex="1" parent="1">
          <mxGeometry x="500" y="200" width="60" height="30" as="geometry" />
        </mxCell>
      </root>
    </mxGraphModel>
  </diagram>
</mxfile>
